<svg width="68" height="73" viewBox="0 0 68 73" fill="none" xmlns="http://www.w3.org/2000/svg">
<g clip-path="url(#clip0_45_936)">
<path d="M6.38054 62.8856L1.62467 64.6446L6.38054 66.4037V67.8402L0 65.3776V63.9117L6.38054 61.4491V62.8856ZM23.2476 62.827C22.6568 62.3286 21.8297 62.0647 20.7367 62.0647C20.146 62.0647 19.5552 62.1527 19.0235 62.2993C18.4917 62.4458 18.0191 62.6804 17.6351 62.9736L18.3145 64.2342C18.5804 63.9997 18.9053 63.8238 19.3189 63.7065C19.7029 63.5599 20.1164 63.5013 20.53 63.5013C21.1503 63.5013 21.6229 63.6479 21.9183 63.9117C22.2433 64.1756 22.391 64.586 22.391 65.0844V65.1723H20.4709C19.4075 65.1723 18.6394 65.3483 18.1373 65.7587C17.6351 66.1691 17.3988 66.6968 17.3988 67.3418C17.3988 67.7816 17.4874 68.1627 17.7237 68.4852C17.96 68.837 18.285 69.1009 18.6985 69.2768C19.1121 69.482 19.5847 69.5699 20.146 69.5699C20.7072 69.5699 21.1798 69.482 21.5639 69.3061C21.9774 69.1302 22.2728 68.8956 22.4796 68.5732V69.4527H24.1043V65.1723C24.1043 64.1169 23.8089 63.3547 23.2476 62.827ZM22.391 67.1659C22.2433 67.5471 22.007 67.8109 21.682 68.0161C21.3275 68.2213 20.9435 68.3093 20.53 68.28C20.0869 68.28 19.7324 68.192 19.4961 68.0161C19.2302 67.8402 19.1121 67.6057 19.1121 67.2832C19.1121 66.6382 19.6143 66.3157 20.6186 66.3157H22.391V67.1659ZM31.1347 62.0647V63.7065C30.987 63.6772 30.8393 63.6772 30.7211 63.6772C30.0417 63.6772 29.51 63.8824 29.1555 64.2635C28.7715 64.6446 28.5943 65.2017 28.5943 65.9346V69.482H26.881V62.1527H28.5352V63.2374C29.0078 62.4458 29.894 62.0647 31.1347 62.0647ZM39.8488 63.8531C39.4944 63.296 39.0217 62.8563 38.4309 62.5338C37.8401 62.2113 37.1607 62.0647 36.3927 62.0647C35.6542 62.0647 34.9748 62.2113 34.384 62.5338C33.7932 62.8563 33.3206 63.296 32.9957 63.8531C32.6707 64.4101 32.4935 65.0551 32.4935 65.788C32.4935 66.4916 32.6707 67.1366 32.9957 67.723C33.3206 68.3093 33.7932 68.7491 34.384 69.0715C35.0043 69.394 35.6542 69.5699 36.3927 69.5406C37.1607 69.5406 37.8401 69.394 38.4309 69.0715C39.0513 68.7491 39.5239 68.28 39.8488 67.723C40.1738 67.1659 40.351 66.5209 40.351 65.788C40.351 65.0551 40.1738 64.4101 39.8488 63.8531ZM37.9878 67.4591C37.5743 67.8695 37.0426 68.1041 36.4222 68.1041C35.8019 68.1041 35.2702 67.8695 34.8566 67.4591C34.4431 67.0193 34.2363 66.4623 34.2363 65.788C34.2363 65.0844 34.4431 64.5274 34.8566 64.1169C35.2702 63.6772 35.7724 63.4719 36.4222 63.4719C37.0426 63.4719 37.5743 63.7065 37.9878 64.1169C38.4014 64.5567 38.6082 65.1137 38.6082 65.788C38.6082 66.4916 38.4014 67.0487 37.9878 67.4591ZM49.2719 62.1527L46.1112 69.482H44.3388L41.1781 62.1527H42.98L45.2841 67.5764L47.6473 62.1527H49.2719ZM50.8966 62.1527V69.482H52.6099V62.1527H50.8966ZM52.5804 59.1623C52.3441 58.9571 52.1077 58.8691 51.7828 58.8691C51.4579 58.8691 51.192 58.9571 50.9852 59.1623C50.7785 59.3675 50.6603 59.6021 50.6603 59.8952C50.6603 60.1884 50.7785 60.423 50.9852 60.6282C51.192 60.8334 51.4579 60.9213 51.7828 60.9507C52.1077 60.9507 52.3736 60.8334 52.5804 60.6282C52.7871 60.423 52.9053 60.1591 52.9053 59.8659C52.9053 59.5728 52.7871 59.3382 52.5804 59.1623ZM59.8766 69.0715C59.6699 69.2475 59.4335 69.3647 59.1381 69.4527C58.8427 69.5406 58.5474 69.5699 58.2224 69.5699C57.4249 69.5699 56.775 69.3647 56.3319 68.925C55.8888 68.4852 55.682 67.8989 55.682 67.078V63.5599H54.4709V62.182H55.682V60.5109H57.3953V62.182H59.3745V63.5599H57.3953V67.0487C57.3953 67.4005 57.4839 67.6643 57.6612 67.8695C57.8384 68.0454 58.1043 68.1627 58.4292 68.1627C58.8132 68.1627 59.1381 68.0748 59.404 67.8695L59.8766 69.0715ZM68 63.9117V65.4069L61.6195 67.8695V66.433L66.3753 64.674L61.6195 62.9149V61.4784L68 63.9117ZM13.2633 72.6776C13.47 72.4724 13.5882 72.1792 13.5882 71.8567C13.5882 71.5342 13.47 71.2703 13.2337 71.0358C12.9974 70.8306 12.7315 70.7133 12.3771 70.7133C12.0521 70.7133 11.7567 70.8306 11.5204 71.0358C11.2841 71.241 11.1659 71.5342 11.1659 71.8567C11.1659 72.1792 11.2841 72.4724 11.5204 72.6776C11.7567 72.8828 12.0521 73.0001 12.4066 73.0001C12.7611 73.0001 13.0269 72.8828 13.2633 72.6776ZM10.1321 68.0748C10.1321 68.3386 10.0139 68.5732 9.8662 68.7491C9.71851 68.8956 9.51173 69.0129 9.27541 69.0129H9.18679C8.98002 69.0129 8.71416 68.8077 8.47785 68.5438C8.38923 68.4559 8.33015 68.3679 8.27107 68.2507C8.24153 68.192 8.24153 68.1041 8.21199 68.0454V68.0161C8.21199 67.9575 8.18245 67.8989 8.18245 67.8109C8.18245 67.635 8.24153 67.4591 8.30061 67.3125L8.41877 67.1659C8.56646 67.0193 8.77324 66.9314 8.98002 66.9314C9.15725 66.9314 9.33449 66.99 9.45265 67.1073C9.51173 67.1659 9.60035 67.2246 9.65943 67.2832L9.68897 67.3125C9.71851 67.3418 9.77759 67.3711 9.80713 67.4005C10.0434 67.5764 10.1321 67.8109 10.1321 68.0748ZM14.7698 58.7225C14.7402 58.6932 14.7107 58.6932 14.7107 58.6932C14.6811 58.6639 14.6516 58.6639 14.5925 58.6346H14.563C14.0017 58.3414 13.2337 58.1655 12.4066 58.1655C11.55 58.1655 10.7819 58.3414 10.2207 58.6346C10.1911 58.6346 10.1616 58.6639 10.1321 58.6639C10.1025 58.6932 10.073 58.6932 10.0434 58.7225C10.0139 58.7519 9.95482 58.7812 9.92528 58.8398C9.77758 58.9864 9.68897 59.2209 9.68897 59.4555C9.68897 59.69 9.77759 59.8952 9.89574 60.0418C10.073 60.247 10.3388 60.2764 10.5752 60.1591C10.9296 59.9832 11.3432 59.8659 11.8158 59.8659C12.1998 59.8659 12.5838 59.9539 12.9088 60.1005C13.1156 60.1884 13.2337 60.423 13.2337 60.6575V65.9639C13.2337 66.8434 13.0269 67.4298 12.5543 67.7523C12.5543 67.7523 12.5248 67.7523 12.5248 67.7816H11.7863C11.7272 67.7816 11.6386 67.7816 11.5795 67.8109C11.4909 67.8402 11.4023 67.8989 11.3432 67.9575C11.3136 67.9868 11.2841 68.0161 11.2841 68.0454C11.2546 68.0748 11.2546 68.1041 11.225 68.1334C11.225 68.1627 11.1955 68.1627 11.1955 68.192C11.1364 68.3093 11.1069 68.4559 11.1069 68.6025C11.1069 68.9543 11.3136 69.2768 11.5795 69.4234C11.6977 69.482 11.8158 69.5113 11.9635 69.5113H12.9088C12.9679 69.5113 13.0269 69.5113 13.086 69.482H13.1156C13.1156 69.482 13.2337 69.4527 13.2928 69.4234C13.6768 69.2768 14.0017 69.0422 14.2676 68.7491C14.8288 68.1041 15.1242 67.1366 15.1242 65.8466V59.3675C15.0947 59.133 14.9765 58.8691 14.7698 58.7225ZM34 6.10352e-05C18.1842 6.10352e-05 5.31712 12.7701 5.31712 28.4668C5.31712 44.1639 18.1839 56.9342 34 56.9342C49.8158 56.9342 62.6829 44.1639 62.6829 28.4668C62.6826 12.7701 49.8158 6.10352e-05 34 6.10352e-05ZM34 55.678C18.882 55.678 6.58259 43.4714 6.58259 28.4668C6.58259 13.4628 18.882 1.25601 34 1.25601C49.118 1.25601 61.4174 13.4628 61.4174 28.4668C61.4171 43.4711 49.1177 55.678 34 55.678Z" fill="#292929"/>
<path d="M43.2882 35.5837L43.2941 35.5779C43.3363 35.56 43.3661 35.536 43.4084 35.5301L43.4143 35.5242L43.4202 35.5184C44.5394 34.9569 45.5024 34.6104 46.1284 34.3835C46.3961 34.2832 46.667 34.1915 46.9407 34.1088C47.3812 33.9737 47.8269 33.8561 48.2768 33.7564C48.6259 33.6728 48.9509 33.601 49.3299 33.4697C50.1183 33.2008 50.8707 32.7769 51.5808 32.2093C52.2369 32.472 52.8926 32.6095 53.5307 32.6095C53.7714 32.6095 54.006 32.5858 54.2408 32.5497C56.666 32.1437 58.6038 29.7426 59.1456 26.5171C59.3404 26.4653 59.5126 26.3512 59.6356 26.1925C59.7585 26.0338 59.8253 25.8392 59.8256 25.639C59.8254 25.5193 59.8015 25.4008 59.7551 25.2904C59.7087 25.1799 59.6408 25.0796 59.5553 24.9952C59.4697 24.9108 59.3682 24.8441 59.2566 24.7987C59.145 24.7534 59.0254 24.7304 58.9048 24.7311C58.3932 24.7311 57.9841 25.1313 57.9841 25.639C57.9841 25.89 58.0804 26.1108 58.2428 26.2723C58.327 26.362 58.4295 26.4335 58.5497 26.4755C58.0322 29.3782 56.2628 31.6001 54.1386 31.9584C53.4887 32.0718 52.8025 32.0062 52.0986 31.7614C54.4396 29.5755 56.2991 25.6572 57.6352 20.0605C57.8631 20.0235 58.0686 19.9029 58.2111 19.7225C58.3535 19.5421 58.4225 19.3153 58.4043 19.0868C58.3861 18.8583 58.2821 18.645 58.1129 18.4891C57.9437 18.3331 57.7217 18.246 57.4908 18.2449C57.3697 18.2444 57.2497 18.2677 57.1378 18.3135C57.0259 18.3592 56.9242 18.4265 56.8386 18.5115C56.753 18.5964 56.6852 18.6973 56.6391 18.8084C56.593 18.9195 56.5695 19.0386 56.57 19.1587C56.57 19.4097 56.6722 19.6305 56.8288 19.792C56.889 19.8577 56.9673 19.9113 57.0456 19.9532C55.6735 25.6812 53.7658 29.5875 51.3705 31.6121C51.3524 31.63 51.3282 31.6479 51.3102 31.6658C50.624 32.2272 49.8958 32.6453 49.1317 32.908C48.7825 33.0273 48.4877 33.0932 48.1447 33.1706C48.1267 33.1765 48.1146 33.1765 48.0966 33.1827C48.8369 32.2568 49.529 31.2832 50.1729 30.2917C51.3524 28.4761 52.4717 26.7619 53.1818 24.6235C53.946 22.318 54.1327 19.8213 53.7416 17.1875C53.9017 17.1146 54.0372 16.9975 54.1322 16.8503C54.2271 16.7031 54.2775 16.532 54.2771 16.3572C54.2771 15.8494 53.868 15.4492 53.3564 15.4492C53.236 15.4482 53.1165 15.4709 53.0051 15.5162C52.8936 15.5614 52.7923 15.6283 52.7071 15.7128C52.622 15.7973 52.5546 15.8978 52.509 16.0085C52.4634 16.1191 52.4405 16.2377 52.4416 16.3572C52.4416 16.6081 52.5379 16.8289 52.6944 16.9901C52.8134 17.1141 52.966 17.2012 53.1337 17.2411H53.1396C53.5248 19.7976 53.3502 22.2165 52.6099 24.4382C51.9237 26.4989 50.8287 28.1832 49.6672 29.9689C48.8906 31.1677 48.0467 32.3223 47.1395 33.4272H47.1336C47.0976 33.433 47.0674 33.4451 47.0314 33.4571C46.8514 32.9264 46.7679 32.3682 46.7847 31.8086C46.8149 30.6678 47.2482 29.754 47.6452 29.1507C47.6754 29.1565 47.6993 29.1627 47.7294 29.1627C47.7474 29.1685 47.7655 29.1685 47.7897 29.1685C47.9098 29.1686 48.0288 29.1451 48.1398 29.0995C48.2508 29.0539 48.3517 28.987 48.4367 28.9027C48.5216 28.8184 48.589 28.7183 48.635 28.6081C48.6809 28.4979 48.7046 28.3798 48.7045 28.2606C48.7052 28.1409 48.682 28.0222 48.6363 27.9115C48.5907 27.8007 48.5234 27.6999 48.4384 27.615C48.3534 27.5301 48.2523 27.4627 48.141 27.4167C48.0297 27.3706 47.9103 27.3469 47.7897 27.3468C47.6686 27.3463 47.5487 27.3696 47.4367 27.4153C47.3248 27.461 47.2231 27.5283 47.1375 27.6133C47.0519 27.6982 46.9841 27.7992 46.938 27.9103C46.8919 28.0214 46.8684 28.1404 46.8689 28.2606C46.8689 28.4995 46.9593 28.7144 47.1097 28.8757C46.6763 29.5505 46.2191 30.5479 46.1827 31.7904C46.1635 32.417 46.2573 33.042 46.4595 33.6359C46.2911 33.6896 46.1166 33.7494 45.924 33.8212C45.4366 34.0003 44.6842 34.275 43.7815 34.6931C44.3471 33.146 44.6301 31.6529 44.636 30.1477C44.6481 28.6426 44.3894 27.5854 44.1667 26.6537C44.1244 26.4746 44.0825 26.3013 44.0461 26.1342C45.4498 25.7036 46.7418 24.9737 47.8316 23.9958C49.282 22.6877 50.0763 21.2066 50.5038 20.0658C50.742 20.0589 50.9681 19.9603 51.1343 19.7908C51.3005 19.6214 51.3938 19.3944 51.3944 19.1579C51.3944 18.9155 51.2974 18.6831 51.1247 18.5117C50.952 18.3403 50.7178 18.244 50.4736 18.244C50.3526 18.2435 50.2326 18.2668 50.1207 18.3126C50.0087 18.3583 49.907 18.4256 49.8214 18.5106C49.7358 18.5955 49.668 18.6965 49.6219 18.8076C49.5759 18.9187 49.5524 19.0377 49.5529 19.1579C49.5529 19.4088 49.6551 19.6296 49.8117 19.7911C49.8477 19.8269 49.884 19.8568 49.926 19.8926C49.4008 21.2938 48.5442 22.5495 47.4284 23.554C46.4196 24.462 45.2248 25.1426 43.9259 25.549C43.7936 24.8085 43.7755 24.0679 44.0281 23.0943C44.2689 22.1746 44.9007 20.4543 46.4415 19.2358C46.983 18.8178 47.3744 18.6565 47.7897 18.4833C47.7956 18.4833 47.8018 18.4774 47.8077 18.4774C48.1569 18.334 48.5178 18.1907 48.9453 17.8861C50.3295 16.9125 51.2021 15.1385 51.527 12.6239C51.7247 12.5733 51.8998 12.4591 52.025 12.2992C52.1503 12.1392 52.2185 11.9426 52.2191 11.74C52.2191 11.4976 52.1221 11.2652 51.9494 11.0938C51.7768 10.9225 51.5426 10.8262 51.2984 10.8262C51.1773 10.8257 51.0574 10.849 50.9454 10.8947C50.8335 10.9405 50.7318 11.0078 50.6462 11.0927C50.5606 11.1777 50.4928 11.2786 50.4467 11.3897C50.4006 11.5008 50.3771 11.6199 50.3776 11.74C50.3776 11.9765 50.4704 12.2036 50.6364 12.3733C50.7147 12.4568 50.8169 12.5225 50.9253 12.5703C50.6184 14.9057 49.8359 16.5243 48.6023 17.3962C48.366 17.5631 48.1117 17.7034 47.844 17.8143C47.2773 16.2918 47.0455 14.6666 47.164 13.0479C47.264 11.7574 47.5899 10.4942 48.127 9.31488C48.1509 9.32075 48.1811 9.3269 48.2053 9.3269C48.2292 9.33277 48.2475 9.33277 48.2656 9.33277C48.5094 9.33176 48.7431 9.23516 48.9155 9.06401C49.088 8.89285 49.1853 8.661 49.1863 8.41895C49.1862 8.29925 49.1623 8.18076 49.1159 8.07027C49.0695 7.95978 49.0016 7.85947 48.916 7.7751C48.8305 7.69074 48.729 7.62398 48.6173 7.57865C48.5057 7.53333 48.3862 7.51034 48.2656 7.51099C47.7539 7.51099 47.3448 7.91117 47.3448 8.41895C47.3448 8.66375 47.4411 8.87894 47.5977 9.04018C47.0261 10.2885 46.6707 11.6444 46.5685 13.0001C46.436 14.7111 46.6846 16.4301 47.2967 18.035C46.9416 18.1904 46.5564 18.3874 46.069 18.7697C45.2023 19.4566 44.6006 20.2807 44.1853 21.0632C43.6084 20.4388 43.1643 19.7054 42.8793 18.9069C42.2114 16.9957 42.7169 15.3232 42.8852 14.7738C43.126 13.9734 43.3969 13.5791 43.6795 13.161C43.9203 12.8086 44.1669 12.4442 44.4018 11.8412C44.7749 10.8795 45.2744 9.022 44.787 6.80005C44.9212 6.71893 45.0322 6.60487 45.1091 6.46884C45.186 6.33282 45.2264 6.17942 45.2262 6.02343C45.2269 5.90374 45.2037 5.78509 45.1581 5.67431C45.1124 5.56353 45.0451 5.46279 44.9601 5.37788C44.8751 5.29297 44.7741 5.22556 44.6627 5.17952C44.5514 5.13349 44.432 5.10973 44.3114 5.10961C44.1902 5.1086 44.07 5.13154 43.9578 5.1771C43.8457 5.22267 43.7438 5.28994 43.658 5.375C43.5723 5.46006 43.5046 5.5612 43.4586 5.67253C43.4127 5.78386 43.3896 5.90315 43.3907 6.02343C43.3907 6.27439 43.4869 6.49544 43.6435 6.65669C43.782 6.80005 43.9743 6.90149 44.1971 6.92553C44.6544 8.99796 44.1912 10.7303 43.842 11.6263C43.6917 12.0086 43.541 12.2833 43.3785 12.5281C42.7706 12.0801 42.0123 11.3454 41.4948 10.2463C41.0012 9.18911 40.9412 7.77367 41.3323 6.01171C41.5519 5.98144 41.7531 5.87357 41.8991 5.70792C42.045 5.54226 42.1258 5.32993 42.1267 5.10991C42.1265 4.99021 42.1026 4.87172 42.0562 4.76123C42.0098 4.65074 41.9419 4.55043 41.8564 4.46606C41.7708 4.3817 41.6693 4.31494 41.5577 4.26961C41.4461 4.22429 41.3265 4.2013 41.2059 4.20195C41.0855 4.2009 40.966 4.22366 40.8546 4.26891C40.7431 4.31417 40.6418 4.38101 40.5566 4.46553C40.4715 4.55005 40.4041 4.65057 40.3585 4.7612C40.3129 4.87184 40.29 4.99038 40.2911 5.10991C40.2911 5.36086 40.3874 5.58162 40.5439 5.74316C40.6042 5.80297 40.6704 5.85662 40.7424 5.89239C40.3271 7.7857 40.3933 9.32661 40.9471 10.4975C41.4233 11.5024 42.1453 12.3731 43.0474 13.03C42.7886 13.4123 42.5299 13.8482 42.3071 14.6008C42.1267 15.198 41.579 17.0077 42.313 19.1042C42.638 20.0359 43.1856 20.9081 43.9079 21.6366C43.7203 22.0598 43.5674 22.4973 43.4506 22.9448C43.0294 24.5335 43.2881 25.5789 43.577 26.7912C43.7998 27.693 44.0464 28.7086 44.0343 30.148C44.0284 31.7666 43.6852 33.3852 42.9812 35.0815C42.5368 35.3101 42.1012 35.5552 41.6753 35.8162C41.2439 35.1179 40.9537 34.3429 40.8207 33.5345C40.8207 33.5107 40.8148 33.4867 40.8086 33.4568V33.4509L40.8077 33.4492C40.5936 31.9953 40.9415 30.7678 41.2839 29.9927H41.3019C41.8073 29.9927 42.2227 29.5866 42.2227 29.0847C42.2227 28.8423 42.1256 28.6099 41.953 28.4385C41.7803 28.2672 41.5461 28.1709 41.3019 28.1709C41.1809 28.1704 41.0609 28.1937 40.949 28.2394C40.837 28.2852 40.7353 28.3524 40.6497 28.4374C40.5641 28.5224 40.4963 28.6233 40.4502 28.7344C40.4041 28.8455 40.3807 28.9645 40.3812 29.0847C40.3812 29.3295 40.4834 29.5505 40.6399 29.7179C40.6639 29.7417 40.6881 29.7657 40.7182 29.7836C40.3421 30.6579 40.1476 31.5985 40.1466 32.5491C39.8339 32.2463 39.4454 32.0318 39.0212 31.9279C38.8426 31.8802 38.6584 31.856 38.4735 31.8561C38.402 31.6987 38.286 31.5654 38.1397 31.4721C37.9934 31.3788 37.823 31.3296 37.6491 31.3304C37.528 31.3299 37.408 31.3532 37.2961 31.3989C37.1842 31.4447 37.0825 31.512 36.9968 31.5969C36.9112 31.6819 36.8434 31.7828 36.7974 31.8939C36.7513 32.005 36.7278 32.1241 36.7283 32.2442C36.7283 32.489 36.8246 32.7101 36.9812 32.8772C37.1377 33.0326 37.3542 33.134 37.5891 33.146C37.6071 33.158 37.6251 33.158 37.6493 33.158C38.0827 33.158 38.4437 32.8534 38.54 32.4532C38.6543 32.4591 38.7627 32.4773 38.8708 32.5069C39.7015 32.7159 40.1165 33.4028 40.237 33.6476C40.3784 34.5302 40.6933 35.3766 41.164 36.1384C39.9363 36.9447 38.6546 37.996 37.5049 39.3578C37.0175 39.9371 36.5481 40.4926 36.1328 41.1197C36.0787 40.1939 35.9222 39.0532 35.573 38.2229C35.3142 37.5958 35.0555 37.2372 34.8268 36.9209C34.6998 36.7421 34.582 36.5773 34.4756 36.3823C34.581 36.1669 34.6755 35.9463 34.7589 35.7215L34.8038 35.5876V35.5726C34.8189 35.5579 34.8339 35.528 34.8189 35.5131C35.1368 34.6631 35.3578 33.7804 35.4779 32.8816C35.5379 32.5547 35.5677 32.2275 35.5677 31.9003C35.5978 31.7221 35.6126 31.5585 35.5978 31.3799C35.6054 31.0709 35.6004 30.7616 35.5828 30.4529C36.1972 29.309 36.7357 28.6962 37.2582 28.1043C37.472 27.8696 37.6786 27.6286 37.878 27.3817C38.0874 27.4297 38.3497 27.4711 38.6484 27.4711C39.0156 27.4711 39.4427 27.4113 39.8881 27.2263C40.8358 26.8478 41.3515 26.1301 41.6127 25.6291C41.6224 25.6299 41.6316 25.6329 41.6413 25.6335C41.6611 25.6399 41.6806 25.6399 41.7004 25.6399C41.944 25.6393 42.1775 25.543 42.3497 25.372C42.522 25.201 42.619 24.9693 42.6197 24.7276C42.6199 24.6077 42.5962 24.489 42.5501 24.3782C42.504 24.2674 42.4363 24.1668 42.3509 24.082C42.2655 23.9972 42.164 23.93 42.0524 23.8843C41.9408 23.8385 41.8212 23.815 41.7004 23.8152C41.5795 23.8145 41.4596 23.8376 41.3477 23.8831C41.2359 23.9287 41.1342 23.9959 41.0487 24.0808C40.9632 24.1656 40.8955 24.2665 40.8496 24.3775C40.8036 24.4886 40.7804 24.6075 40.7811 24.7276C40.7811 24.9753 40.8795 25.1966 41.0372 25.3596C41.0437 25.3664 41.0517 25.3714 41.0585 25.3778C40.8396 25.7891 40.4151 26.3696 39.6595 26.6766C39.1378 26.8885 38.6475 26.8932 38.2756 26.8434C38.514 26.4935 38.729 26.1285 38.9192 25.7507C39.2019 25.2131 41.6153 20.3452 39.8521 15.7163C39.497 14.7905 39.2203 14.2232 38.9795 13.7154C38.6726 13.0763 38.4079 12.5269 38.0407 11.4158C37.3365 9.27736 37.782 7.28261 38.3837 5.53266C38.626 5.53019 38.8575 5.43273 39.0277 5.26155C39.1979 5.09037 39.293 4.85934 39.2923 4.61884C39.2929 4.49945 39.2697 4.38112 39.2239 4.2707C39.1781 4.16027 39.1108 4.05995 39.0257 3.97552C38.9406 3.89109 38.8395 3.82424 38.7283 3.77881C38.617 3.73339 38.4978 3.7103 38.3775 3.71089C37.86 3.71089 37.4567 4.11107 37.4567 4.61884C37.4567 4.8698 37.553 5.09056 37.7096 5.2521C37.7397 5.282 37.7699 5.3119 37.8059 5.33565C37.2763 6.87657 36.6804 9.18823 37.4689 11.601C37.8481 12.7479 38.1308 13.3451 38.4378 13.9722C38.6844 14.492 38.9432 15.0235 39.2864 15.9253C40.9894 20.3871 38.4921 25.2729 38.3837 25.4757C38.0827 26.0612 37.7938 26.4972 37.5111 26.8674C37.2763 27.1779 37.0417 27.4409 36.801 27.7097C36.3818 28.1899 35.9505 28.6807 35.48 29.4301C35.4502 29.2265 35.4146 29.0238 35.3733 28.8223C35.2085 28.0046 34.9689 27.2761 34.7291 26.6666L34.7276 26.6628C35.3074 26.1169 35.8009 25.4872 36.1913 24.795C38.2452 21.1248 36.5833 16.9333 36.0259 15.7354C35.9423 15.5565 35.7906 15.4179 35.6042 15.3498C35.4177 15.2818 35.2117 15.2899 35.0313 15.3724C34.8511 15.4554 34.7114 15.6059 34.6428 15.7909C34.5742 15.976 34.5824 16.1805 34.6656 16.3595C35.1497 17.3962 36.5936 21.0157 34.8806 24.0717C34.6607 24.4626 34.3988 24.8288 34.0996 25.1638C33.7253 24.3171 33.4107 23.7821 33.1263 23.3362C32.8867 22.9348 32.692 22.6226 32.5272 22.1913C31.7332 20.1547 32.4672 18.0731 32.9916 16.5419L33.1112 16.1851C33.4707 15.1294 33.7702 14.6093 34.07 14.1039C34.3247 13.7025 34.5645 13.2712 34.8192 12.6318C35.5683 10.6248 36.1074 8.46908 34.3397 4.26176C34.1749 3.87536 33.7407 3.69681 33.3661 3.86041C32.9768 4.024 32.7969 4.45496 32.9617 4.8267C34.6543 8.84082 33.9655 10.6547 33.411 12.1115C33.2163 12.6318 33.0066 12.9737 32.7818 13.3604C32.4672 13.8957 32.0927 14.5199 31.6883 15.7242L31.5683 16.0661C30.9991 17.7014 30.1451 20.1843 31.1338 22.7264C31.3435 23.2764 31.5834 23.6777 31.8528 24.109C32.1523 24.6144 32.5118 25.1793 32.9464 26.2201C33.3209 27.1269 33.8302 28.3609 34.0248 29.907C34.0697 30.2638 34.0999 30.6206 34.1146 30.9924V31.022C34.1146 31.1557 34.1146 31.2896 34.0996 31.4233L33.9947 31.2152C33.6801 30.5611 33.2456 29.7731 32.6616 28.8513C32.2274 28.1823 31.8977 27.6769 31.6129 27.2902L31.6014 27.2787C31.5937 27.2659 31.5869 27.253 31.5787 27.2406C31.5641 27.2171 31.5469 27.1954 31.5273 27.1758L31.5199 27.1665C31.5093 27.1533 31.5066 27.1401 31.4933 27.1266C31.2236 26.7549 30.9988 26.5021 30.8192 26.279C30.5197 25.9222 30.3247 25.7141 30.0252 25.1345C28.602 22.3693 28.4374 18.6079 29.591 15.5603C29.8905 14.7723 30.1304 14.4006 30.3847 13.9845C30.6993 13.5237 31.0139 13.0329 31.3134 12.022C32.0023 9.77722 31.9275 7.30929 31.1187 4.70767C30.9988 4.32127 30.5794 4.09817 30.19 4.2169C29.7856 4.33593 29.5759 4.75224 29.6955 5.15359C30.4145 7.47288 30.4745 9.62858 29.8754 11.5911C29.6356 12.3938 29.4111 12.7506 29.1263 13.1968C28.8566 13.628 28.542 14.1039 28.1825 15.0256C26.8642 18.5193 27.0591 22.6522 28.6918 25.8041C28.8415 26.0718 28.9615 26.2946 29.0811 26.4731C29.0811 26.4731 29.0929 26.4743 29.095 26.486C28.987 26.437 28.8809 26.3838 28.7771 26.3265C27.4854 25.6165 26.8857 24.4872 26.6429 23.8774C26.4923 23.4956 26.0563 23.3039 25.6717 23.4593C25.5802 23.4951 25.4967 23.5484 25.426 23.6162C25.3553 23.684 25.2988 23.765 25.2596 23.8546C25.2205 23.9441 25.1996 24.0404 25.198 24.138C25.1964 24.2356 25.2142 24.3325 25.2504 24.4232C25.5665 25.2189 26.3505 26.6924 28.0502 27.6273C28.8241 28.0503 29.6795 28.3059 30.5602 28.3773C30.8424 28.7891 31.1184 29.205 31.3881 29.625C32.4217 31.2902 32.9611 32.4052 33.2158 33.1487C33.5005 33.9663 33.4704 34.353 33.4556 34.5609C33.4406 34.8136 33.3957 35.0071 33.3508 35.1853C33.3059 35.319 33.261 35.438 33.201 35.5717C33.1561 35.6908 33.0814 35.8244 33.0063 35.9731C32.7966 36.4043 32.5272 36.9394 32.2572 37.772C32.0043 38.5393 31.8241 39.3283 31.719 40.1288L31.7172 40.1262C30.9542 38.8811 29.9505 37.5289 28.752 36.3774C28.8767 35.9825 28.9697 35.5776 29.0327 35.1689C29.4271 34.75 29.8495 34.3579 30.297 33.9953C30.6974 33.6738 31.117 33.3766 31.5536 33.1053C31.637 33.0534 31.7093 32.9858 31.7663 32.9062C31.8234 32.8267 31.864 32.7367 31.886 32.6415C31.9081 32.5463 31.9109 32.4478 31.8945 32.3515C31.8781 32.2552 31.8428 32.1631 31.7905 32.0803C31.6846 31.9137 31.5165 31.7954 31.323 31.7513C31.1295 31.7072 30.9263 31.741 30.7578 31.8452C30.2703 32.1482 29.8019 32.4803 29.3549 32.8396C29.2773 32.9021 29.2016 32.9672 29.1251 33.0314V33.0296C29.0285 31.7985 28.6875 30.5984 28.1217 29.4987C27.93 29.1322 27.4804 28.9938 27.1111 29.1735C26.9349 29.2646 26.8019 29.421 26.7413 29.6089C26.6806 29.7967 26.697 30.0006 26.7871 30.1765C27.3377 31.2425 27.6345 32.4197 27.6546 33.6174C27.6618 34.1833 27.6057 34.7481 27.4874 35.3017C27.1765 35.0685 26.8519 34.8537 26.5153 34.6585C26.1821 34.4624 25.8375 34.2862 25.4832 34.1308C25.2215 31.4225 25.0528 28.7563 24.9875 26.2046L24.9713 25.5499C24.9414 24.2667 24.9154 23.1611 24.7223 22.1863C25.4926 21.2356 26.0657 20.1353 26.3844 18.9776C26.6243 18.1095 26.9433 16.3525 26.3844 14.3434C26.2096 13.7154 26.0105 13.2839 25.8061 12.9215C26.4353 12.4155 26.9581 11.8209 27.3545 11.1434C28.7721 8.71886 28.1355 6.15184 27.7964 5.16033C27.7315 4.97422 27.5953 4.82104 27.4172 4.73404C27.2392 4.64704 27.0338 4.63325 26.8456 4.69565C26.6574 4.75924 26.5024 4.89436 26.4146 5.07132C26.3268 5.24829 26.3134 5.45261 26.3774 5.63938C26.6509 6.43798 27.1687 8.50104 26.0583 10.397C25.7925 10.8535 25.4486 11.2613 25.041 11.6207C24.9688 11.4722 24.9031 11.3207 24.8442 11.1666C24.3468 9.86869 24.262 8.35738 24.5941 6.6731C24.6318 6.47945 24.5906 6.27884 24.4795 6.11528C24.3684 5.95172 24.1965 5.83856 24.0015 5.80062C23.5992 5.72792 23.2027 5.98356 23.1224 6.38873C22.7378 8.34859 22.8459 10.1331 23.4441 11.6952C23.7058 12.3791 23.9808 12.8116 24.2224 13.1936C24.4975 13.6263 24.7344 13.9992 24.9408 14.7383C25.4046 16.405 25.1396 17.8626 24.9394 18.5841C24.7544 19.2511 24.4749 19.8887 24.1093 20.4777C23.9277 20.1611 23.7106 19.8658 23.4621 19.5976C22.7951 18.8747 22.1762 18.619 21.5781 18.3707C21.4496 18.3175 21.3219 18.2626 21.1949 18.2059C21.7253 16.4485 21.9158 14.6073 21.7565 12.7796C21.6106 11.0958 21.1706 9.44999 20.4562 7.91586C20.3731 7.7368 20.2219 7.59779 20.0356 7.52942C19.8493 7.46105 19.6433 7.46892 19.4629 7.5513C19.2825 7.63368 19.1424 7.78382 19.0735 7.9687C19.0046 8.15357 19.0126 8.35803 19.0956 8.5371C19.7371 9.91563 20.1327 11.3943 20.2644 12.9071C20.395 14.4029 20.2648 15.9098 19.8795 17.3616C18.5972 16.2244 17.758 14.3566 17.3855 11.7951C17.3256 11.387 16.935 11.1141 16.5371 11.1651C16.3406 11.1935 16.1634 11.298 16.0444 11.4559C15.9254 11.6137 15.8743 11.8119 15.9023 12.0071C16.3762 15.2607 17.5657 17.585 19.4353 18.9134C20.0423 19.3446 20.5516 19.5551 21.0006 19.7425C21.5302 19.9617 21.9133 20.1201 22.3582 20.602C22.7747 21.0529 23.0261 21.5625 23.1835 22.1673C23.1859 22.1772 23.1883 22.1869 23.1912 22.1966C23.3885 22.9741 23.4329 23.9114 23.4627 25.0949C22.6862 24.7224 21.9634 24.2485 21.3137 23.6856C19.6007 22.1975 18.786 20.4349 18.404 19.2183C18.3429 19.0326 18.2106 18.8783 18.0358 18.7887C17.861 18.6991 17.6576 18.6813 17.4697 18.7393C17.2818 18.7972 17.1244 18.9262 17.0315 19.0984C16.9387 19.2706 16.9178 19.4722 16.9734 19.6595C17.4139 21.0591 18.3515 23.0887 20.3277 24.8035C21.2704 25.6229 22.3457 26.2785 23.5082 26.7428C23.5758 28.9536 23.7179 31.2413 23.9294 33.5673L23.9235 33.5655C23.4575 33.4405 22.9859 33.3367 22.5103 33.2545C22.4206 32.0161 22.1515 30.7971 21.7113 29.635C21.137 28.1249 20.283 26.7348 19.1936 25.5364C19.1277 25.4638 19.0481 25.4048 18.9592 25.3627C18.8703 25.3206 18.774 25.2963 18.6756 25.2912C18.5773 25.2861 18.4789 25.3002 18.3861 25.3328C18.2933 25.3655 18.2078 25.4159 18.1346 25.4813C18.0615 25.5467 18.002 25.6258 17.9596 25.714C17.9172 25.8022 17.8927 25.8978 17.8876 25.9954C17.8824 26.093 17.8967 26.1906 17.9295 26.2828C17.9624 26.3749 18.0132 26.4597 18.0791 26.5323C19.0445 27.5923 19.8012 28.8225 20.3099 30.1592C20.5887 30.8991 20.7894 31.6657 20.9087 32.4468C20.0798 31.6526 19.095 30.472 18.1258 29.0964C15.7443 25.7179 14.745 21.4176 15.235 16.6571C15.2452 16.56 15.2359 16.4619 15.2078 16.3684C15.1796 16.2749 15.1332 16.1879 15.0711 16.1122C15.009 16.0365 14.9325 15.9738 14.8459 15.9275C14.7593 15.8813 14.6644 15.8524 14.5666 15.8427C14.1554 15.7919 13.7882 16.0968 13.746 16.5061C13.2178 21.6267 14.3093 26.274 16.8969 29.9472C17.2715 30.479 17.9716 31.4351 18.7833 32.3688C16.0376 31.027 12.0028 26.5866 11.4419 19.1652C11.4247 18.9689 11.3309 18.7871 11.1805 18.6586C11.0301 18.53 10.835 18.4649 10.6369 18.4771C10.4387 18.4922 10.2546 18.5849 10.1252 18.7347C9.99578 18.8846 9.93164 19.0793 9.94687 19.276C10.3858 25.0753 12.7691 29.18 15.2534 31.6113C14.8084 31.62 14.3646 31.5642 13.9359 31.4456C11.8805 30.8648 10.3022 28.786 9.91586 26.148C9.85589 25.7399 9.46833 25.4713 9.066 25.5194C8.86942 25.5481 8.69234 25.6531 8.57361 25.8112C8.45488 25.9693 8.4042 26.1677 8.43268 26.3629C8.90383 29.5787 10.9034 32.1355 13.5265 32.8745C14.0546 33.0241 14.6076 33.0982 15.1721 33.0982C15.7041 33.0982 16.2474 33.0285 16.7882 32.8971L16.7906 32.8989C17.4945 33.4002 18.1775 33.7634 18.7907 33.9883C19.7177 34.3272 20.6201 34.4691 21.4877 34.6004C22.4397 34.7482 23.4163 34.9001 24.4851 35.3225C24.4983 35.3281 24.5113 35.3337 24.5252 35.3384C24.9508 35.5102 25.3634 35.7119 25.76 35.942C25.9272 36.0387 26.0911 36.1425 26.2548 36.2534C25.7803 36.4128 25.2895 36.5195 24.7914 36.5714C23.1118 36.7512 21.7494 36.2982 20.8922 35.8901C20.5229 35.7104 20.0733 35.8658 19.8922 36.2361C19.8069 36.414 19.796 36.6183 19.8619 36.8043C19.9279 36.9902 20.0652 37.1427 20.2441 37.2284C21.1152 37.6468 22.4359 38.1 24.0387 38.1C24.3437 38.0989 24.6484 38.0827 24.9518 38.0517C25.6696 37.9754 26.3664 37.806 27.039 37.5536C27.2232 37.486 27.4046 37.411 27.5826 37.3287C27.7448 37.4799 27.9028 37.6355 28.0564 37.7954C28.8923 38.6594 29.6551 39.655 30.289 40.6504C29.5475 40.5346 28.6599 40.5439 27.525 40.5548C26.7989 40.5653 25.949 40.575 24.9423 40.558C23.3664 40.4229 21.397 39.9594 19.4604 38.7008C17.3069 37.3012 16.071 35.4849 15.4126 34.2088C15.3216 34.0337 15.1646 33.9015 14.9758 33.8408C14.787 33.7802 14.5817 33.7961 14.4047 33.8851C14.317 33.9295 14.2391 33.9906 14.1752 34.0649C14.1114 34.1392 14.063 34.2253 14.0327 34.3182C14.0024 34.4111 13.9908 34.509 13.9987 34.6063C14.0066 34.7036 14.0337 34.7985 14.0786 34.8854C14.8188 36.3228 16.2113 38.3654 18.6398 39.9435C18.7712 40.0291 18.903 40.1086 19.0347 40.1877C15.116 39.7562 14.0145 39.1367 13.1832 38.4873C11.7071 37.3316 10.6892 35.6113 10.1566 33.3723C10.063 32.9745 9.66802 32.7148 9.25683 32.8191C9.16108 32.8413 9.07068 32.882 8.99081 32.9389C8.91094 32.9959 8.84317 33.0679 8.79139 33.1508C8.73961 33.2338 8.70483 33.3261 8.68905 33.4224C8.67327 33.5187 8.67679 33.6172 8.69942 33.7121C9.31089 36.2877 10.5075 38.2868 12.2557 39.6544C13.6367 40.733 15.36 41.3982 20.5061 41.8207C22.2008 41.9603 23.6154 42.0198 24.8126 42.0418C25.2481 42.0793 25.6572 42.0951 26.0312 42.0951C26.4651 42.0951 26.8526 42.0746 27.1829 42.0459L27.5409 42.0412C29.8143 42.0195 30.5602 42.0368 31.1953 42.6278C32.5996 43.9345 32.4445 47.2259 30.7463 52.146C30.7074 52.2578 30.6961 52.3773 30.7132 52.4945C30.7303 52.6116 30.7754 52.7229 30.8447 52.8193C30.914 52.9156 31.0054 52.9941 31.1115 53.0482C31.2175 53.1023 31.3351 53.1305 31.4543 53.1304C31.766 53.1304 32.0569 52.9358 32.1624 52.6279C33.7448 48.0486 34.0597 44.804 33.1121 42.7826C33.024 41.1968 33.2187 39.6703 33.6819 38.2326C33.7696 37.9441 33.8746 37.661 33.9965 37.385C34.0514 37.249 34.1061 37.1264 34.161 37.0109C34.2198 37.0971 34.2798 37.1812 34.3409 37.2654C34.5577 37.57 34.7864 37.8866 35.0209 38.448C35.4602 39.5111 35.5807 41.2552 35.5506 42.169C35.4268 42.427 35.3215 42.6932 35.2354 42.9658C35.2262 42.9872 35.2153 43.0083 35.2114 43.0306C35.1524 43.2018 35.0986 43.3842 35.051 43.5724C34.5515 45.5912 34.9308 47.4429 35.2076 48.7926C35.3949 49.7028 35.6584 50.5958 35.9951 51.4626C36.0542 51.6294 36.1227 51.8003 36.2037 51.9803C36.2173 52.0126 36.2288 52.0454 36.2427 52.0776C36.2456 52.0844 36.2527 52.0873 36.256 52.0935C36.3006 52.189 36.3387 52.2817 36.3883 52.3787C36.4988 52.5951 36.6178 52.8232 36.7546 53.0302C36.7762 53.063 36.8041 53.0913 36.8368 53.1134C36.8694 53.1355 36.9062 53.151 36.9449 53.159C36.9836 53.167 37.0235 53.1673 37.0623 53.1599C37.1011 53.1526 37.1381 53.1377 37.1711 53.1161C37.3102 53.0258 37.3489 52.8408 37.2577 52.7024C37.141 52.5256 37.0391 52.3315 36.9253 52.1087C36.8621 51.9853 36.8113 51.8674 36.7575 51.7481C36.684 51.5733 36.6135 51.3973 36.546 51.2201C36.5257 51.1612 36.4976 51.0961 36.4808 51.0401C36.4778 51.0298 36.4704 51.0228 36.4663 51.0131C36.1849 50.2507 35.9612 49.4685 35.7972 48.673C35.5142 47.3051 35.1713 45.6091 35.6348 43.7155C35.677 43.5422 35.7248 43.3751 35.7851 43.2139C35.7851 43.2089 35.7866 43.2051 35.7901 43.2036C36.235 42.5698 36.7694 42.0702 37.3797 41.7266C38.9683 40.8307 40.6896 41.1593 41.9536 41.3982L42.2605 41.4519C46.5452 42.2282 50.8963 41.5176 53.1171 40.5261C55.4041 39.5046 57.2577 37.4559 58.6416 34.4219C59.1231 34.3979 59.5021 33.9977 59.5021 33.5139C59.5027 33.3946 59.4794 33.2762 59.4337 33.1658C59.3879 33.0554 59.3205 32.9551 59.2355 32.8706C59.1504 32.7862 59.0493 32.7193 58.938 32.6739C58.8268 32.6285 58.7076 32.6054 58.5873 32.606C58.0697 32.606 57.6665 33.0062 57.6665 33.5139C57.6665 33.7649 57.7628 33.9857 57.9194 34.1472C57.9616 34.1891 58.0036 34.2249 58.0517 34.2548C56.7399 37.1097 54.9944 39.0329 52.8702 39.9766C51.2653 40.6926 48.5051 41.2575 45.4732 41.1795L45.48 41.1772C46.8407 40.6867 48.1282 40.0156 49.3074 39.1821C50.6629 38.2298 51.866 37.08 52.8761 35.7717C52.9062 35.7775 52.9423 35.7837 52.9724 35.7837C52.9911 35.7929 53.0118 35.797 53.0326 35.7957C53.2765 35.7947 53.5101 35.6981 53.6826 35.5269C53.8551 35.3558 53.9524 35.1239 53.9534 34.8819C53.9534 34.7619 53.9296 34.6431 53.8833 34.5322C53.837 34.4213 53.7692 34.3206 53.6837 34.2357C53.5982 34.1509 53.4967 34.0836 53.385 34.0376C53.2733 33.9917 53.1536 33.9681 53.0326 33.9681C52.9116 33.9676 52.7916 33.9909 52.6797 34.0366C52.5678 34.0823 52.466 34.1496 52.3804 34.2346C52.2948 34.3196 52.227 34.4205 52.181 34.5316C52.1349 34.6427 52.1114 34.7617 52.1119 34.8819C52.1119 35.1088 52.2023 35.312 52.3405 35.4732C51.3816 36.7098 50.2416 37.7969 48.9583 38.6984C47.4071 39.7852 45.6727 40.5882 43.837 41.0696L43.829 41.0719C43.3398 41.0218 42.8526 40.9533 42.3686 40.8664L42.0617 40.8066C40.7918 40.5677 38.8602 40.2033 37.0845 41.2009C36.9156 41.2962 36.7528 41.4032 36.5948 41.5184C36.9974 40.8817 37.4771 40.3214 37.9693 39.7377C38.8772 38.663 39.9232 37.7112 41.0807 36.9065C41.0928 36.9124 41.0987 36.9124 41.1108 36.9186C41.8179 37.1797 42.5563 37.3484 43.3073 37.4202C44.5056 37.5279 45.7134 37.3937 46.858 37.0259L46.876 37.0437C47.0347 37.2071 47.2495 37.3052 47.4777 37.3185C47.4958 37.3243 47.52 37.3243 47.538 37.3243C47.7819 37.3233 48.0155 37.2267 48.188 37.0556C48.3604 36.8844 48.4577 36.6525 48.4587 36.4105C48.4587 36.1681 48.3617 35.9357 48.1891 35.7643C48.0164 35.593 47.7822 35.4967 47.538 35.4967C47.4169 35.4962 47.297 35.5195 47.185 35.5652C47.0731 35.611 46.9714 35.6782 46.8858 35.7632C46.8002 35.8482 46.7324 35.9491 46.6863 36.0602C46.6402 36.1713 46.6167 36.2903 46.6173 36.4105C46.6173 36.4284 46.6173 36.4524 46.6232 36.4703C45.558 36.8048 44.4446 36.9241 43.3614 36.8227C42.9546 36.7864 42.5518 36.7144 42.1577 36.6078L41.7004 36.4885C41.8026 36.4228 41.8989 36.363 42.0014 36.2973C42.4215 36.0441 42.8507 35.8061 43.2882 35.5837ZM58.4475 25.8123C58.4236 25.7576 58.4113 25.6986 58.4115 25.639C58.4115 25.3702 58.6342 25.1553 58.9051 25.1553C59.176 25.1553 59.3987 25.3702 59.3987 25.639C59.3987 25.7883 59.3325 25.9258 59.2182 26.0093C59.1673 26.056 59.1052 26.0889 59.0377 26.1049C58.9947 26.1171 58.9501 26.1231 58.9054 26.1228C58.797 26.1228 58.7007 26.087 58.6165 26.0331C58.5422 25.975 58.484 25.899 58.4475 25.8123ZM57.0335 19.3317C57.0155 19.2781 56.9974 19.2183 56.9974 19.1585C56.9974 18.8837 57.2261 18.6686 57.4911 18.6686C57.7619 18.6686 57.9847 18.8835 57.9847 19.1585C57.9847 19.3317 57.8943 19.4868 57.7498 19.5707C57.7111 19.5957 57.6683 19.6138 57.6234 19.6243C57.5805 19.637 57.5358 19.643 57.4911 19.6422C57.3633 19.6413 57.2406 19.5922 57.1481 19.5047C57.0975 19.4561 57.0584 19.397 57.0335 19.3317ZM53.0613 16.7398C52.9894 16.6856 52.9333 16.6135 52.8988 16.5307C52.8796 16.4749 52.8694 16.4165 52.8687 16.3575C52.8687 16.2284 52.9204 16.1045 53.0124 16.0133C53.1044 15.922 53.2291 15.8707 53.3592 15.8707C53.4893 15.8707 53.6141 15.922 53.706 16.0133C53.798 16.1045 53.8497 16.2284 53.8497 16.3575C53.8497 16.5067 53.7773 16.6501 53.663 16.7339C53.6123 16.7764 53.5527 16.8069 53.4884 16.8233C53.4455 16.836 53.4009 16.842 53.3561 16.8412C53.248 16.8412 53.1458 16.8054 53.0613 16.7398ZM47.7897 27.7713C48.0544 27.7713 48.2833 27.9862 48.2833 28.2612C48.2833 28.4582 48.1569 28.6256 47.9823 28.7033C47.958 28.7091 47.94 28.7153 47.9161 28.7212C47.8751 28.7334 47.8325 28.7394 47.7897 28.739C47.6092 28.739 47.4526 28.6493 47.3744 28.506C47.3527 28.4839 47.3363 28.4574 47.3262 28.4283C47.3075 28.3745 47.2973 28.3181 47.2961 28.2612C47.2961 27.9865 47.5188 27.7713 47.7897 27.7713ZM50.4736 18.6689C50.7445 18.6689 50.9672 18.8837 50.9672 19.1587C50.9672 19.3558 50.847 19.5349 50.6662 19.6067C50.6482 19.6126 50.624 19.6187 50.606 19.6246C50.563 19.6368 50.5184 19.6428 50.4736 19.6425C50.3988 19.6429 50.3249 19.6259 50.258 19.5927C50.1911 19.5594 50.133 19.511 50.0884 19.4513C50.0588 19.4151 50.0344 19.375 50.0161 19.332C49.9981 19.2784 49.98 19.2186 49.98 19.1587C49.98 18.8837 50.2028 18.6689 50.4736 18.6689ZM50.8408 11.9077C50.8191 11.8545 50.8069 11.798 50.8048 11.7406C50.8048 11.4659 51.0275 11.2507 51.2981 11.2507C51.4022 11.2506 51.5036 11.2832 51.5878 11.3439C51.672 11.4046 51.7346 11.4902 51.7667 11.5885C51.7988 11.6867 51.7987 11.7925 51.7664 11.8907C51.7341 11.9889 51.6713 12.0744 51.587 12.1349C51.5388 12.1648 51.4907 12.1947 51.4304 12.2067C51.3874 12.219 51.3428 12.225 51.2981 12.2246C51.1779 12.2246 51.0635 12.1827 50.9791 12.1053C50.918 12.0511 50.8707 11.9834 50.8408 11.9077ZM48.265 7.9358C48.3294 7.93537 48.3933 7.94755 48.4529 7.97164C48.5126 7.99572 48.5669 8.03124 48.6128 8.07616C48.6586 8.12108 48.6951 8.17453 48.7201 8.23345C48.7451 8.29237 48.7582 8.3556 48.7586 8.41953C48.7598 8.52612 48.7249 8.63003 48.6594 8.71452C48.5939 8.79902 48.5017 8.8592 48.3976 8.88539C48.3734 8.89125 48.3494 8.89741 48.3252 8.89741C48.3072 8.90327 48.2892 8.90327 48.265 8.90327C48.1662 8.90298 48.0697 8.87323 47.9882 8.81786C47.9067 8.7625 47.8438 8.68408 47.8077 8.5928C47.7837 8.53814 47.7715 8.47914 47.7717 8.41953C47.7717 8.15069 47.9941 7.9358 48.265 7.9358ZM44.3111 6.50834C44.2269 6.50834 44.1486 6.48459 44.0763 6.44853C43.9983 6.40796 43.933 6.34703 43.8874 6.27232C43.8418 6.19761 43.8176 6.11196 43.8175 6.02461C43.8175 5.8955 43.8692 5.77167 43.9612 5.68038C44.0531 5.58908 44.1779 5.53779 44.308 5.53779C44.4381 5.53779 44.5629 5.58908 44.6548 5.68038C44.7468 5.77167 44.7985 5.8955 44.7985 6.02461C44.7985 6.14422 44.7563 6.25768 44.6783 6.34123C44.6159 6.41495 44.5316 6.46719 44.4375 6.49046C44.3965 6.50257 44.3539 6.5086 44.3111 6.50834ZM40.8446 5.43914C40.8034 5.39347 40.7708 5.34084 40.7483 5.28376C40.7303 5.23011 40.7123 5.1703 40.7123 5.11049C40.7123 4.83579 40.9409 4.6206 41.2059 4.6206C41.4768 4.6206 41.6995 4.8355 41.6995 5.11049C41.6995 5.28962 41.5973 5.45087 41.4467 5.53471C41.4106 5.5526 41.3743 5.56462 41.3382 5.57664C41.2953 5.58929 41.2507 5.59532 41.2059 5.59452C41.0615 5.59452 40.935 5.53471 40.8446 5.43914ZM41.3022 28.5957C41.5731 28.5957 41.7958 28.8106 41.7958 29.0856C41.7958 29.2826 41.6756 29.45 41.501 29.5277C41.4771 29.5335 41.4588 29.5397 41.4348 29.5456C41.3918 29.5578 41.3472 29.5638 41.3025 29.5634C41.14 29.5634 40.9956 29.4858 40.9114 29.3664C40.8813 29.3365 40.8632 29.2949 40.8452 29.253C40.8213 29.2005 40.809 29.1435 40.8092 29.0859C40.8088 29.0215 40.8213 28.9576 40.8459 28.898C40.8705 28.8384 40.9068 28.7843 40.9527 28.7387C40.9985 28.6931 41.053 28.657 41.113 28.6325C41.173 28.6079 41.2373 28.5954 41.3022 28.5957ZM38.0824 32.472V32.4779C38.0498 32.5347 38.0057 32.5842 37.9529 32.6233C37.9001 32.6623 37.8397 32.6901 37.7755 32.7048C37.7348 32.719 37.6922 32.727 37.6491 32.7285C37.5486 32.7283 37.4507 32.6979 37.3679 32.6414C37.2852 32.5849 37.2217 32.5049 37.1856 32.4119C37.1582 32.338 37.1492 32.2585 37.1594 32.1804C37.1697 32.1023 37.1988 32.0277 37.2443 31.9632C37.2899 31.8987 37.3504 31.846 37.4209 31.8097C37.4914 31.7735 37.5697 31.7547 37.6491 31.7549C37.7693 31.7549 37.8839 31.8027 37.974 31.8863C38.0762 31.9639 38.1424 32.0953 38.1424 32.2445C38.1427 32.3228 38.1246 32.4002 38.0824 32.472ZM41.7001 24.2403C41.9692 24.2403 42.1925 24.4555 42.1925 24.729C42.193 24.8351 42.1577 24.9383 42.0922 25.0221C42.0268 25.106 41.9349 25.1657 41.8313 25.1917C41.7887 25.205 41.7444 25.2116 41.6998 25.2113C41.5705 25.2109 41.4465 25.1601 41.3544 25.0699C41.2623 24.9798 41.2095 24.8574 41.2074 24.729C41.2074 24.6648 41.2201 24.6012 41.2449 24.5419C41.2697 24.4826 41.306 24.4287 41.3517 24.3833C41.3975 24.338 41.4518 24.302 41.5116 24.2774C41.5713 24.2529 41.6354 24.2403 41.7001 24.2403ZM38.3772 4.13716C38.6419 4.13716 38.8646 4.35206 38.8646 4.6209C38.8659 4.72096 38.8351 4.81885 38.7767 4.90042C38.7183 4.982 38.6353 5.04304 38.5397 5.07473C38.5276 5.08059 38.5154 5.08059 38.5036 5.08675C38.4626 5.099 38.42 5.10503 38.3772 5.10463C38.2088 5.10463 38.0523 5.01492 37.9619 4.88973C37.9439 4.85983 37.9258 4.82993 37.9137 4.79416C37.886 4.72022 37.8768 4.6407 37.8869 4.56246C37.8971 4.48421 37.9261 4.40957 37.9717 4.34495C38.0173 4.28032 38.078 4.22765 38.1487 4.19146C38.2193 4.15527 38.2977 4.13663 38.3772 4.13716ZM58.5861 33.0334C58.8508 33.0334 59.0735 33.2483 59.0735 33.5172C59.0751 33.5938 59.0572 33.6695 59.0214 33.7374C58.9856 33.8052 58.9331 33.863 58.8688 33.9053V33.9112C58.8206 33.9411 58.7725 33.971 58.7122 33.983C58.6712 33.9953 58.6286 34.0013 58.5858 34.0009C58.4472 34.0009 58.3211 33.9473 58.2307 33.8575C58.1858 33.808 58.1492 33.7516 58.1223 33.6904C58.0946 33.6165 58.0854 33.5369 58.0955 33.4587C58.1057 33.3804 58.1348 33.3057 58.1804 33.2411C58.226 33.1765 58.2868 33.1238 58.3574 33.0876C58.4281 33.0515 58.5066 33.0329 58.5861 33.0334ZM53.0315 34.3952C53.3023 34.3952 53.5251 34.6104 53.5251 34.8851C53.5251 35.0941 53.3927 35.2733 53.2001 35.3331C53.188 35.3389 53.1759 35.3451 53.1641 35.3451C53.1214 35.3593 53.0768 35.3673 53.0318 35.3689C52.9452 35.3687 52.8602 35.346 52.7853 35.303C52.7103 35.26 52.648 35.1983 52.6046 35.1241C52.5987 35.1003 52.5866 35.0763 52.5745 35.0522C52.5565 34.9986 52.5385 34.9446 52.5385 34.8851C52.5381 34.8207 52.5506 34.7569 52.5753 34.6974C52.5999 34.6378 52.6362 34.5837 52.682 34.5381C52.7279 34.4926 52.7824 34.4565 52.8423 34.432C52.9023 34.4074 52.9666 34.395 53.0315 34.3952ZM47.0553 36.3305C47.0736 36.2169 47.1321 36.1136 47.2204 36.0391C47.3087 35.9646 47.421 35.924 47.5368 35.9244C47.8077 35.9244 48.0304 36.1396 48.0304 36.4143C48.0304 36.6354 47.8801 36.8265 47.6694 36.8802C47.6264 36.8924 47.5819 36.8984 47.5371 36.898C47.4709 36.898 47.4048 36.886 47.3504 36.8561C47.2883 36.8319 47.232 36.7949 47.1853 36.7476C47.1386 36.7002 47.1026 36.6436 47.0795 36.5814C47.0549 36.5292 47.0426 36.472 47.0435 36.4143C47.0435 36.3841 47.0435 36.3604 47.0553 36.3305Z" fill="#292929"/>
</g>
<defs>
<clipPath id="clip0_45_936">
<rect width="68" height="73" fill="white"/>
</clipPath>
</defs>
</svg>
